<svg xmlns="http://www.w3.org/2000/svg" xmlns:xlink="http://www.w3.org/1999/xlink" width="500" zoomAndPan="magnify" viewBox="0 0 375 374.999991" height="500" preserveAspectRatio="xMidYMid meet" version="1.0"><defs><clipPath id="6ebd4c8d45"><path d="M 74.894531 37.5 L 75 37.5 L 75 337 L 74.894531 337 Z M 74.894531 37.5 " clip-rule="nonzero"/></clipPath><clipPath id="d0f0c70bb0"><path d="M 74.894531 54 L 299.894531 54 L 299.894531 337 L 74.894531 337 Z M 74.894531 54 " clip-rule="nonzero"/></clipPath></defs><g clip-path="url(#6ebd4c8d45)"><path fill="#ee7aaa" d="M -122.695312 100.269531 C -128.058594 112.945312 -130.78125 126.402344 -130.78125 140.265625 C -130.78125 154.128906 -128.058594 167.585938 -122.695312 180.261719 C -117.515625 192.5 -110.101562 203.484375 -100.664062 212.914062 C -91.222656 222.34375 -80.230469 229.75 -67.980469 234.925781 C -60.050781 238.277344 -51.8125 240.597656 -43.363281 241.863281 L -43.363281 273.394531 L -82.378906 273.394531 L -82.378906 304.582031 L -43.363281 304.582031 L -43.363281 336.546875 L -12.148438 336.546875 L -12.148438 304.582031 L 26.871094 304.582031 L 26.871094 273.394531 L -12.148438 273.394531 L -12.148438 241.804688 C -3.835938 240.523438 4.269531 238.226562 12.082031 234.925781 C 24.328125 229.75 35.324219 222.34375 44.761719 212.914062 C 54.199219 203.484375 61.613281 192.5 66.792969 180.261719 C 72.160156 167.585938 74.882812 154.128906 74.882812 140.265625 C 74.882812 126.402344 72.160156 112.945312 66.792969 100.269531 C 61.613281 88.03125 54.199219 77.046875 44.761719 67.617188 C 35.324219 58.183594 24.328125 50.78125 12.082031 45.605469 C -0.605469 40.242188 -14.074219 37.523438 -27.949219 37.523438 C -41.824219 37.523438 -55.292969 40.242188 -67.980469 45.605469 C -80.230469 50.78125 -91.222656 58.183594 -100.664062 67.617188 C -110.101562 77.046875 -117.515625 88.03125 -122.695312 100.269531 Z M -98.746094 140.265625 C -98.746094 101.261719 -66.988281 69.53125 -27.949219 69.53125 C 11.085938 69.53125 42.847656 101.261719 42.847656 140.265625 C 42.847656 179.269531 11.085938 211 -27.949219 211 C -66.988281 211 -98.746094 179.269531 -98.746094 140.265625 Z M -98.746094 140.265625 " fill-opacity="1" fill-rule="nonzero"/></g><g clip-path="url(#d0f0c70bb0)"><path fill="#31a9e1" d="M 234.230469 98.75 L 212.621094 137.113281 C 205.574219 134.566406 198.269531 132.800781 190.769531 131.84375 C 177.105469 130.09375 163.402344 131.101562 150.039062 134.835938 C 136.675781 138.570312 124.441406 144.8125 113.667969 153.390625 C 103.269531 161.671875 94.675781 171.761719 88.128906 183.382812 C 81.582031 195.007812 77.40625 207.582031 75.714844 220.757812 C 73.964844 234.410156 74.972656 248.105469 78.710938 261.453125 C 79.824219 265.4375 81.164062 269.320312 82.722656 273.09375 C 86.382812 281.96875 91.257812 290.242188 97.28125 297.796875 C 105.570312 308.1875 115.667969 316.769531 127.300781 323.3125 C 138.933594 329.855469 151.519531 334.027344 164.710938 335.714844 C 178.375 337.464844 192.078125 336.457031 205.441406 332.722656 C 218.800781 328.988281 231.039062 322.746094 241.8125 314.167969 C 252.210938 305.886719 260.804688 295.792969 267.351562 284.171875 C 273.898438 272.550781 278.074219 259.976562 279.765625 246.796875 C 281.515625 233.144531 280.507812 219.453125 276.769531 206.101562 C 273.03125 192.75 266.785156 180.523438 258.199219 169.761719 C 253.289062 163.605469 247.742188 158.085938 241.621094 153.246094 L 262.769531 115.699219 L 270.425781 143.035156 L 300.484375 134.632812 L 278.097656 54.667969 L 277.578125 54.8125 L 277.433594 54.292969 L 197.398438 76.660156 L 205.804688 106.695312 Z M 158.667969 165.65625 C 176.878906 160.566406 195.984375 162.867188 212.464844 172.136719 C 226.449219 180 237.121094 192.082031 243.148438 206.679688 C 244.222656 209.285156 245.148438 211.96875 245.917969 214.722656 C 256.433594 252.285156 234.40625 291.390625 196.8125 301.898438 C 178.597656 306.988281 159.496094 304.6875 143.015625 295.421875 C 129.03125 287.554688 118.355469 275.472656 112.332031 260.875 C 111.257812 258.269531 110.332031 255.589844 109.558594 252.832031 C 104.464844 234.636719 106.769531 215.546875 116.042969 199.082031 C 125.320312 182.617188 140.457031 170.746094 158.667969 165.65625 Z M 158.667969 165.65625 " fill-opacity="1" fill-rule="nonzero"/></g></svg>